<svg width="54" height="54" viewBox="0 0 54 54" fill="none" xmlns="http://www.w3.org/2000/svg">
<path fill-rule="evenodd" clip-rule="evenodd" d="M14.6977 19.3268L23.9624 23.7321C24.6767 20.3674 26.7571 16.982 29.2883 15.0673L19.6074 10.4608C17.4369 13.0207 15.731 16.094 14.6977 19.3268Z" fill="#002DC8"/>
<path fill-rule="evenodd" clip-rule="evenodd" d="M29.5658 37.7111C26.8543 35.4981 24.8433 32.4248 24.0597 29.1365L14.8227 33.5279C15.9045 36.733 17.652 39.7299 19.8919 42.3176L29.5658 37.7111Z" fill="#4E000A"/>
<path fill-rule="evenodd" clip-rule="evenodd" d="M40.1343 46.8549C40.1995 46.5282 40.2328 46.1952 40.2328 45.8622C40.2328 43.4598 38.522 41.373 36.1677 40.9026C33.7405 40.417 31.4798 39.2793 29.5589 37.7114L19.8781 42.3109C23.5604 46.5566 28.5742 49.6923 34.1843 50.8162C36.9305 51.3642 39.5934 49.5883 40.1343 46.8549Z" fill="#FF9396"/>
<path fill-rule="evenodd" clip-rule="evenodd" d="M24.0597 29.1365C23.8239 28.1514 23.6989 27.1457 23.6989 26.1398C23.6989 25.3559 23.7891 24.5438 23.9624 23.7321C24.6767 20.3674 26.7571 16.982 29.2883 15.0673C29.9193 14.5886 30.5781 14.2005 31.2508 13.9299C33.8374 12.8824 35.0857 9.93399 34.0455 7.34634C32.9983 4.75868 30.0511 3.50995 27.4644 4.55056C24.5241 5.73686 21.8265 7.83153 19.6074 10.4608C17.4112 13.0672 15.7441 16.0764 14.6977 19.3203C13.9834 21.5472 13.5881 23.8574 13.5881 26.1329C13.5881 28.6581 14.025 31.1486 14.8225 33.5212L24.0597 29.1365Z" fill="url(#paint0_linear_918_7498)"/>
<path fill-rule="evenodd" clip-rule="evenodd" d="M17.6658 50.8162L32.4436 43.7886L32.4367 43.7816C32.4367 43.7816 32.4436 43.7817 32.4436 43.7886L46.5071 37.1009C48.2651 36.2643 49.3906 34.4834 49.392 32.5361C49.392 30.5867 48.2685 28.8107 46.5071 27.9713L32.1662 21.1518C29.635 23.0665 27.5546 26.452 26.8404 29.8166L31.4727 32.0227C31.9096 32.2309 31.9096 32.8552 31.4727 33.0633L26.9374 35.2209L13.1651 41.7698C11.4037 42.6058 10.2769 44.3908 10.2803 46.3416C10.2803 46.7925 10.3427 47.2434 10.4676 47.6874C11.3066 50.7329 14.8087 52.1759 17.6658 50.8162Z" fill="#FF536A"/>
<path fill-rule="evenodd" clip-rule="evenodd" d="M14.6977 19.3268L23.9624 23.7321C24.6767 20.3674 26.7571 16.982 29.2883 15.0673L19.6074 10.4608C17.4369 13.0207 15.731 16.094 14.6977 19.3268Z" fill="#002DC8"/>
<path fill-rule="evenodd" clip-rule="evenodd" d="M29.5658 37.7111C26.8543 35.4981 24.8433 32.4248 24.0597 29.1365L14.8227 33.5279C15.9045 36.733 17.652 39.7299 19.8919 42.3176L29.5658 37.7111Z" fill="url(#paint1_linear_918_7498)"/>
<path fill-rule="evenodd" clip-rule="evenodd" d="M40.1343 46.8549C40.1995 46.5282 40.2328 46.1952 40.2328 45.8622C40.2328 43.4598 38.522 41.373 36.1677 40.9026C33.7405 40.417 31.4798 39.2793 29.5589 37.7114L19.8781 42.3109C23.5604 46.5566 28.5742 49.6923 34.1843 50.8162C36.9305 51.3642 39.5934 49.5883 40.1343 46.8549Z" fill="#FFEFF0"/>
<path fill-rule="evenodd" clip-rule="evenodd" d="M24.0597 29.1365C23.8239 28.1514 23.6989 27.1457 23.6989 26.1398C23.6989 25.3559 23.7891 24.5438 23.9624 23.7321C24.6767 20.3674 26.7571 16.982 29.2883 15.0673C29.9193 14.5886 30.5781 14.2005 31.2508 13.9299C33.8374 12.8824 35.0857 9.93399 34.0455 7.34634C32.9983 4.75868 30.0511 3.50995 27.4644 4.55056C24.5241 5.73686 21.8265 7.83153 19.6074 10.4608C17.4112 13.0672 15.7441 16.0764 14.6977 19.3203C13.9834 21.5472 13.5881 23.8574 13.5881 26.1329C13.5881 28.6581 14.025 31.1486 14.8225 33.5212L24.0597 29.1365Z" fill="url(#paint2_linear_918_7498)"/>
<path fill-rule="evenodd" clip-rule="evenodd" d="M17.6658 50.8162L32.4436 43.7886L32.4367 43.7816C32.4367 43.7816 32.4436 43.7817 32.4436 43.7886L46.5071 37.1009C48.2651 36.2643 49.3906 34.4834 49.392 32.5361C49.392 30.5867 48.2685 28.8107 46.5071 27.9713L32.1662 21.1518C29.635 23.0665 27.5546 26.452 26.8404 29.8166L31.4727 32.0227C31.9096 32.2309 31.9096 32.8552 31.4727 33.0633L26.9374 35.2209L13.1651 41.7698C11.4037 42.6058 10.2769 44.3908 10.2803 46.3416C10.2803 46.7925 10.3427 47.2434 10.4676 47.6874C11.3066 50.7329 14.8087 52.1759 17.6658 50.8162Z" fill="#265787"/>
<defs>
<linearGradient id="paint0_linear_918_7498" x1="-1933.79" y1="4.18369" x2="-1933.79" y2="4718.76" gradientUnits="userSpaceOnUse">
<stop stop-color="#FF5500"/>
<stop offset="0.409877" stop-color="#FF5500"/>
<stop offset="0.581981" stop-color="#FF2000"/>
<stop offset="1" stop-color="#FF2000"/>
</linearGradient>
<linearGradient id="paint1_linear_918_7498" x1="22.7937" y1="4.18378" x2="22.7937" y2="51.3296" gradientUnits="userSpaceOnUse">
<stop stop-color="#FF02F0"/>
<stop offset="1" stop-color="#FFC800"/>
</linearGradient>
<linearGradient id="paint2_linear_918_7498" x1="22.7937" y1="4.18378" x2="22.7937" y2="51.3296" gradientUnits="userSpaceOnUse">
<stop stop-color="#FF02F0"/>
<stop offset="1" stop-color="#FFC800"/>
</linearGradient>
</defs>
</svg>
