<svg width="100" height="100" viewBox="0 0 100 100" fill="none" xmlns="http://www.w3.org/2000/svg">
<path d="M73.5423 65.1664C73.5423 69.0928 72.9109 72.1901 71.6483 74.4588C70.3858 76.64 68.5311 78.6906 66.0849 80.61C65.4535 81.0464 64.5856 81.5699 63.4807 82.1806C62.3758 82.7913 61.1528 83.3585 59.8112 83.882C58.4696 84.4055 57.0491 84.8419 55.5499 85.1908C54.0506 85.5397 52.6694 85.7143 51.4069 85.7143C47.8557 85.7143 45.1726 85.2779 43.3576 84.4055C41.5426 83.6202 40.6351 82.6604 40.6351 81.5262C40.6351 80.3046 40.9507 79.3013 41.582 78.516C42.2134 77.7307 42.7658 77.2944 43.2392 77.2072L44.5413 78.2542C44.9359 78.6906 45.4883 79.1704 46.1985 79.6939C46.9088 80.1302 48.053 80.3483 49.6313 80.3483C51.1306 80.3483 52.9457 80.0865 55.0764 79.563C57.207 78.9523 59.2194 78.0796 61.1133 76.9454C63.0861 75.7238 64.7433 74.2407 66.0849 72.4956C67.5053 70.7505 68.2156 68.7438 68.2156 66.4752C68.2156 64.4683 66.8347 62.636 64.0726 60.9783C61.3896 59.2332 57.1282 58.0553 51.2885 57.4446C48.2897 57.1828 45.3305 56.7902 42.4106 56.2667C39.4908 55.656 36.8472 54.8708 34.4798 53.9109C32.1913 52.8639 30.3368 51.5988 28.9163 50.1154C27.4959 48.5449 26.7856 46.6254 26.7856 44.3568C26.7856 42.1756 27.338 40.0814 28.4428 38.0746C29.5476 36.0678 30.8892 34.2355 32.4675 32.5778C34.1247 30.8327 35.8213 29.3058 37.5574 27.997C39.2935 26.6882 40.7534 25.5976 41.9372 24.7251C42.8841 24.1143 44.1862 23.329 45.8434 22.3693C47.5795 21.3222 49.3945 20.3625 51.2885 19.4899C53.2613 18.5302 55.1947 17.7449 57.0887 17.1341C59.0615 16.4361 60.7186 16.0871 62.0603 16.0871C63.6386 16.0871 64.704 16.567 65.2563 17.5268C65.8086 18.4866 66.0849 19.8389 66.0849 21.584C66.0849 23.0673 65.927 24.6378 65.6114 26.2956C65.2958 27.9534 64.9407 29.5676 64.5461 31.1381C64.1514 32.7086 63.757 34.1047 63.3624 35.3262C63.0468 36.4605 62.81 37.2021 62.6521 37.5511C62.3365 38.3364 61.9814 38.8599 61.5868 39.1217C61.1921 39.3834 60.9161 39.5143 60.7582 39.5143C60.4426 39.5143 60.2847 39.2962 60.2847 38.8599C60.2847 38.5982 60.3242 38.1183 60.4031 37.4202C60.561 36.635 60.7186 35.7188 60.8766 34.6718C61.1133 33.6248 61.2712 32.4905 61.35 31.269C61.5079 30.0474 61.5868 28.8259 61.5868 27.6044C61.5868 25.6848 61.5079 24.2888 61.35 23.4163C61.1921 22.5438 60.561 22.1075 59.4561 22.1075C58.3512 22.1075 56.8519 22.4565 54.958 23.1545C53.0641 23.7653 51.1306 24.5506 49.1578 25.5103C47.0271 26.5574 44.9359 27.9098 42.8841 29.5676C40.9113 31.2253 39.1357 32.9268 37.5574 34.6718C35.9791 36.4169 34.6771 38.1183 33.6512 39.7761C32.7042 41.3466 32.2307 42.6117 32.2307 43.5715C32.2307 44.6185 32.862 45.6219 34.1247 46.5817C35.4662 47.4542 37.1234 48.2394 39.0963 48.9375C41.148 49.6356 43.3971 50.2463 45.8434 50.7698C48.2897 51.2933 50.6966 51.686 53.0641 51.9477C55.0368 52.2095 57.207 52.5584 59.5745 52.9947C61.9419 53.4311 64.1514 54.1289 66.2033 55.0888C68.2551 56.0487 69.9911 57.3574 71.4116 59.0151C72.832 60.5857 73.5423 62.636 73.5423 65.1664Z" fill="black"/>
<path d="M73.5423 64.3811C73.5423 68.3075 72.9109 71.4049 71.6483 73.6735C70.3858 75.8547 68.5311 77.9053 66.0849 79.8248C65.4535 80.2611 64.5856 80.7846 63.4807 81.3953C62.3758 82.006 61.1528 82.5732 59.8112 83.0967C58.4696 83.6202 57.0491 84.0566 55.5499 84.4055C54.0506 84.7544 52.6694 84.929 51.4069 84.929C47.8557 84.929 45.1726 84.4927 43.3576 83.6202C41.5426 82.835 40.6351 81.8751 40.6351 80.7409C40.6351 79.5193 40.9507 78.516 41.582 77.7307C42.2134 76.9454 42.7658 76.5091 43.2392 76.4219L44.5413 77.469C44.9359 77.9053 45.4883 78.3851 46.1985 78.9086C46.9088 79.345 48.053 79.563 49.6313 79.563C51.1306 79.563 52.9457 79.3013 55.0764 78.7777C57.207 78.1671 59.2194 77.2944 61.1133 76.1602C63.0861 74.9386 64.7433 73.4555 66.0849 71.7103C67.5053 69.9652 68.2156 67.9586 68.2156 65.6899C68.2156 63.683 66.8347 61.8507 64.0726 60.193C61.3896 58.4479 57.1282 57.27 51.2885 56.6593C48.2897 56.3976 45.3305 56.0049 42.4106 55.4814C39.4908 54.8708 36.8472 54.0855 34.4798 53.1256C32.1913 52.0786 30.3368 50.8135 28.9163 49.3302C27.4959 47.7596 26.7856 45.8402 26.7856 43.5715C26.7856 41.3903 27.338 39.2962 28.4428 37.2894C29.5476 35.2826 30.8892 33.4503 32.4675 31.7925C34.1247 30.0474 35.8213 28.5205 37.5574 27.2118C39.2935 25.903 40.7534 24.8123 41.9372 23.9398C42.8841 23.329 44.1862 22.5438 45.8434 21.584C47.5795 20.537 49.3945 19.5772 51.2885 18.7047C53.2613 17.7449 55.1947 16.9596 57.0887 16.3489C59.0615 15.6508 60.7186 15.3018 62.0603 15.3018C63.6386 15.3018 64.704 15.7817 65.2563 16.7415C65.8086 17.7013 66.0849 19.0537 66.0849 20.7987C66.0849 22.282 65.927 23.8526 65.6114 25.5103C65.2958 27.1681 64.9407 28.7823 64.5461 30.3528C64.1514 31.9234 63.757 33.3194 63.3624 34.5409C63.0468 35.6752 62.81 36.4169 62.6521 36.7659C62.3365 37.5511 61.9814 38.0746 61.5868 38.3364C61.1921 38.5982 60.9161 38.729 60.7582 38.729C60.4426 38.729 60.2847 38.5109 60.2847 38.0746C60.2847 37.8129 60.3242 37.333 60.4031 36.635C60.561 35.8497 60.7186 34.9336 60.8766 33.8865C61.1133 32.8395 61.2712 31.7052 61.35 30.4837C61.5079 29.2622 61.5868 28.0407 61.5868 26.8191C61.5868 24.8996 61.5079 23.5035 61.35 22.631C61.1921 21.7585 60.561 21.3222 59.4561 21.3222C58.3512 21.3222 56.8519 21.6712 54.958 22.3693C53.0641 22.98 51.1306 23.7653 49.1578 24.7251C47.0271 25.7721 44.9359 27.1245 42.8841 28.7823C40.9113 30.4401 39.1357 32.1415 37.5574 33.8865C35.9791 35.6316 34.6771 37.333 33.6512 38.9908C32.7042 40.5613 32.2307 41.8264 32.2307 42.7863C32.2307 43.8333 32.862 44.8366 34.1247 45.7964C35.4662 46.6689 37.1234 47.4542 39.0963 48.1523C41.148 48.8504 43.3971 49.461 45.8434 49.9845C48.2897 50.5081 50.6966 50.9007 53.0641 51.1625C55.0368 51.4242 57.207 51.7731 59.5745 52.2095C61.9419 52.6458 64.1514 53.3437 66.2033 54.3035C68.2551 55.2634 69.9911 56.5722 71.4116 58.2299C72.832 59.8004 73.5423 61.8507 73.5423 64.3811Z" fill="black"/>
<path d="M73.5423 63.8576C73.5423 67.784 72.9109 70.8813 71.6483 73.15C70.3858 75.3312 68.5311 77.3818 66.0849 79.3013C65.4535 79.7376 64.5856 80.2611 63.4807 80.8718C62.3758 81.4825 61.1528 82.0497 59.8112 82.5732C58.4696 83.0967 57.0491 83.5331 55.5499 83.882C54.0506 84.2309 52.6694 84.4055 51.4069 84.4055C47.8557 84.4055 45.1726 83.9692 43.3576 83.0967C41.5426 82.3115 40.6351 81.3516 40.6351 80.2174C40.6351 78.9958 40.9507 77.9925 41.582 77.2072C42.2134 76.4219 42.7658 75.9856 43.2392 75.8984L44.5413 76.9455C44.9359 77.3818 45.4883 77.8616 46.1985 78.3851C46.9088 78.8215 48.053 79.0395 49.6313 79.0395C51.1306 79.0395 52.9457 78.7777 55.0764 78.2542C57.207 77.6436 59.2194 76.7709 61.1133 75.6367C63.0861 74.4151 64.7433 72.9319 66.0849 71.1868C67.5053 69.4417 68.2156 67.4351 68.2156 65.1664C68.2156 63.1595 66.8347 61.3272 64.0726 59.6695C61.3896 57.9244 57.1282 56.7465 51.2885 56.1358C48.2897 55.8741 45.3305 55.4814 42.4106 54.9579C39.4908 54.3472 36.8472 53.562 34.4798 52.6021C32.1913 51.5551 30.3368 50.29 28.9163 48.8067C27.4959 47.2361 26.7856 45.3167 26.7856 43.048C26.7856 40.8667 27.338 38.7727 28.4428 36.7659C29.5476 34.7591 30.8892 32.9268 32.4675 31.269C34.1247 29.5239 35.8213 27.997 37.5574 26.6882C39.2935 25.3795 40.7534 24.2888 41.9372 23.4163C42.8841 22.8055 44.1862 22.0203 45.8434 21.0605C47.5795 20.0135 49.3945 19.0537 51.2885 18.1812C53.2613 17.2214 55.1947 16.4361 57.0887 15.8254C59.0615 15.1273 60.7186 14.7783 62.0603 14.7783C63.6386 14.7783 64.704 15.2582 65.2563 16.218C65.8086 17.1778 66.0849 18.5302 66.0849 20.2752C66.0849 21.7585 65.927 23.329 65.6114 24.9868C65.2958 26.6446 64.9407 28.2588 64.5461 29.8293C64.1514 31.3999 63.757 32.7959 63.3624 34.0174C63.0468 35.1517 62.81 35.8934 62.6521 36.2424C62.3365 37.0276 61.9814 37.5511 61.5868 37.8129C61.1921 38.0746 60.9161 38.2055 60.7582 38.2055C60.4426 38.2055 60.2847 37.9874 60.2847 37.5511C60.2847 37.2894 60.3242 36.8095 60.4031 36.1115C60.561 35.3262 60.7186 34.4101 60.8766 33.363C61.1133 32.316 61.2712 31.1817 61.35 29.9602C61.5079 28.7387 61.5868 27.5171 61.5868 26.2956C61.5868 24.3761 61.5079 22.98 61.35 22.1075C61.1921 21.235 60.561 20.7987 59.4561 20.7987C58.3512 20.7987 56.8519 21.1477 54.958 21.8458C53.0641 22.4565 51.1306 23.2418 49.1578 24.2016C47.0271 25.2486 44.9359 26.601 42.8841 28.2588C40.9113 29.9166 39.1357 31.618 37.5574 33.363C35.9791 35.1081 34.6771 36.8095 33.6512 38.4673C32.7042 40.0378 32.2307 41.3029 32.2307 42.2627C32.2307 43.3098 32.862 44.3131 34.1247 45.2729C35.4662 46.1454 37.1234 46.9306 39.0963 47.6287C41.148 48.3269 43.3971 48.9375 45.8434 49.461C48.2897 49.9846 50.6966 50.3772 53.0641 50.6389C55.0368 50.9007 57.207 51.2496 59.5745 51.686C61.9419 52.1223 64.1514 52.8202 66.2033 53.78C68.2551 54.7399 69.9911 56.0487 71.4116 57.7064C72.832 59.2769 73.5423 61.3272 73.5423 63.8576Z" fill="black"/>
<path d="M35.3083 80.7409C37.531 80.7409 39.3329 78.7487 39.3329 76.2911C39.3329 73.8335 37.531 71.8412 35.3083 71.8412C33.0856 71.8412 31.2837 73.8335 31.2837 76.2911C31.2837 78.7487 33.0856 80.7409 35.3083 80.7409Z" fill="#0000FF"/>
</svg>
